<svg width="81" height="81" viewBox="0 0 81 81" fill="none" xmlns="http://www.w3.org/2000/svg">
<circle cx="39.5998" cy="43.0437" r="30.4172" fill="#B9DAFF"/>
<path fill-rule="evenodd" clip-rule="evenodd" d="M35.648 20.4067C37.7723 18.2444 39.061 15.2489 39.0079 11.9387C38.9021 5.34573 33.5138 0.00107574 26.9727 0.00107574C20.4316 0.00107574 15.2147 5.34573 15.3204 11.9387C15.3442 13.4229 15.6358 14.8439 16.1479 16.1549C14.6766 15.4623 13.0465 15.0763 11.3355 15.0763C4.96917 15.0763 -0.105217 20.4209 0.00153175 27.0139C0.108281 33.6068 5.35574 38.9515 11.7221 38.9515C15.2011 38.9515 18.2943 37.3554 20.367 34.8318C22.3243 37.384 25.3511 39.0271 28.7236 39.0271C34.509 39.0271 39.1206 34.1915 39.0241 28.2264C38.9742 25.15 37.6818 22.3739 35.648 20.4067Z" fill="#0077FF"/>
<path fill-rule="evenodd" clip-rule="evenodd" d="M10.6826 36.7172C14.7153 36.7172 17.9845 34.4065 17.9845 31.5561C17.9845 31.3876 17.9731 31.221 17.9508 31.0567C17.5953 33.211 14.4769 34.8956 10.6826 34.8956C6.88822 34.8956 3.76982 33.211 3.4144 31.0567C3.39207 31.221 3.38065 31.3876 3.38065 31.5561C3.38065 34.4065 6.64983 36.7172 10.6826 36.7172Z" fill="#0B71E5"/>
<path fill-rule="evenodd" clip-rule="evenodd" d="M21.7779 32.7896C21.7969 32.9512 21.8254 33.1126 21.8638 33.2733C22.5563 36.1702 26.202 37.7586 30.0065 36.8212C33.8111 35.8838 36.3339 32.7755 35.6414 29.8787C35.603 29.7179 35.5555 29.5612 35.4993 29.4087C35.7155 31.7145 33.182 34.1874 29.5886 35.0728C25.9951 35.9582 22.6269 34.9394 21.7779 32.7896Z" fill="#0B71E5"/>
<path fill-rule="evenodd" clip-rule="evenodd" d="M35.648 59.9424C37.7723 62.1048 39.061 65.1003 39.0079 68.4105C38.9021 75.0034 33.5138 80.3481 26.9727 80.3481C20.4316 80.3481 15.2147 75.0034 15.3204 68.4105C15.3442 66.9262 15.6358 65.5052 16.1479 64.1942C14.6766 64.8868 13.0465 65.2729 11.3355 65.2729C4.96917 65.2729 -0.105217 59.9282 0.00153175 53.3353C0.108281 46.7423 5.35574 41.3977 11.7221 41.3977C15.2011 41.3977 18.2943 42.9937 20.367 45.5174C22.3243 42.9652 25.3511 41.322 28.7236 41.322C34.509 41.322 39.1206 46.1577 39.0241 52.1227C38.9742 55.1992 37.6818 57.9752 35.648 59.9424Z" fill="#0077FF"/>
<path fill-rule="evenodd" clip-rule="evenodd" d="M10.6825 43.6314C14.7153 43.6314 17.9845 45.9421 17.9845 48.7925C17.9845 48.961 17.973 49.1276 17.9507 49.2919C17.5953 47.1375 14.4769 45.453 10.6825 45.453C6.88818 45.453 3.76977 47.1375 3.41435 49.2919C3.39202 49.1276 3.3806 48.961 3.3806 48.7925C3.3806 45.9421 6.64979 43.6314 10.6825 43.6314Z" fill="#0B71E5"/>
<path fill-rule="evenodd" clip-rule="evenodd" d="M21.778 47.56C21.7969 47.3983 21.8254 47.237 21.8639 47.0762C22.5564 44.1794 26.202 42.5909 30.0066 43.5283C33.8111 44.4657 36.334 47.574 35.6414 50.4709C35.603 50.6316 35.5555 50.7883 35.4994 50.9408C35.7156 48.635 33.1821 46.1621 29.5886 45.2767C25.9951 44.3913 22.6269 45.4101 21.778 47.56Z" fill="#0B71E5"/>
<rect x="30.9911" y="52.8004" width="8.03474" height="16.0695" fill="#0077FF"/>
<path fill-rule="evenodd" clip-rule="evenodd" d="M44.6991 20.4069C42.5748 18.2446 41.2862 15.2491 41.3393 11.9389C41.445 5.34592 46.8334 0.00126648 53.3745 0.00126648C59.9156 0.00126648 65.1325 5.34592 65.0267 11.9389C65.0029 13.4231 64.7114 14.8441 64.1993 16.1551C65.6705 15.4625 67.3007 15.0765 69.0117 15.0765C75.378 15.0765 80.4524 20.4211 80.3456 27.0141C80.2389 33.607 74.9914 38.9517 68.6251 38.9517C65.1461 38.9517 62.0529 37.3556 59.9802 34.8319C58.0229 37.3841 54.996 39.0273 51.6236 39.0273C45.8382 39.0273 41.2265 34.1917 41.3231 28.2266C41.3729 25.1501 42.6654 22.3741 44.6991 20.4069Z" fill="#0077FF"/>
<path fill-rule="evenodd" clip-rule="evenodd" d="M69.6647 36.7172C65.6319 36.7172 62.3628 34.4065 62.3628 31.5561C62.3628 31.3876 62.3742 31.221 62.3965 31.0567C62.7519 33.211 65.8703 34.8956 69.6647 34.8956C73.4591 34.8956 76.5775 33.211 76.9329 31.0567C76.9552 31.221 76.9666 31.3876 76.9666 31.5561C76.9666 34.4065 73.6974 36.7172 69.6647 36.7172Z" fill="#0B71E5"/>
<path fill-rule="evenodd" clip-rule="evenodd" d="M58.5692 32.7896C58.5503 32.9512 58.5217 33.1126 58.4833 33.2733C57.7908 36.1702 54.1452 37.7586 50.3406 36.8212C46.536 35.8838 44.0132 32.7755 44.7057 29.8787C44.7442 29.7179 44.7917 29.5612 44.8478 29.4087C44.6316 31.7145 47.1651 34.1874 50.7586 35.0728C54.3521 35.9582 57.7202 34.9394 58.5692 32.7896Z" fill="#0B71E5"/>
<rect x="41.3214" y="11.479" width="8.03474" height="16.0695" fill="#0077FF"/>
<path fill-rule="evenodd" clip-rule="evenodd" d="M44.6992 59.9424C42.5749 62.1048 41.2863 65.1003 41.3394 68.4105C41.4451 75.0034 46.8334 80.3481 53.3746 80.3481C59.9157 80.3481 65.1325 75.0034 65.0268 68.4105C65.003 66.9262 64.7115 65.5052 64.1993 64.1942C65.6706 64.8868 67.3008 65.2729 69.0117 65.2729C75.3781 65.2729 80.4524 59.9282 80.3457 53.3353C80.2389 46.7423 74.9915 41.3977 68.6252 41.3977C65.1462 41.3977 62.053 42.9937 59.9803 45.5174C58.0229 42.9652 54.9961 41.322 51.6237 41.322C45.8383 41.322 41.2266 46.1577 41.3232 52.1227C41.373 55.1992 42.6654 57.9752 44.6992 59.9424Z" fill="#0077FF"/>
<path fill-rule="evenodd" clip-rule="evenodd" d="M69.6647 43.6314C65.6319 43.6314 62.3627 45.9421 62.3627 48.7925C62.3627 48.961 62.3742 49.1276 62.3965 49.2919C62.7519 47.1375 65.8703 45.453 69.6647 45.453C73.459 45.453 76.5774 47.1375 76.9329 49.2919C76.9552 49.1276 76.9666 48.961 76.9666 48.7925C76.9666 45.9421 73.6974 43.6314 69.6647 43.6314Z" fill="#0B71E5"/>
<path fill-rule="evenodd" clip-rule="evenodd" d="M58.5693 47.56C58.5503 47.3983 58.5218 47.237 58.4834 47.0762C57.7908 44.1794 54.1452 42.5909 50.3406 43.5283C46.5361 44.4657 44.0132 47.574 44.7058 50.4709C44.7442 50.6316 44.7917 50.7883 44.8478 50.9408C44.6317 48.635 47.1651 46.1621 50.7586 45.2767C54.3521 44.3913 57.7203 45.4101 58.5693 47.56Z" fill="#0B71E5"/>
<rect x="41.3214" y="52.8004" width="8.03474" height="16.0695" fill="#0077FF"/>
<rect x="30.9911" y="12.6264" width="8.03474" height="16.0695" fill="#0077FF"/>
</svg>
